<mxfile host="app.diagrams.net" agent="Mozilla/5.0 (Windows NT 10.0; Win64; x64) AppleWebKit/537.36 (KHTML, like Gecko) Chrome/139.0.0.0 Safari/537.36" version="28.1.2">
  <diagram name="Page-1" id="yIVOC61qqJ4diFONTTTy">
    <mxGraphModel dx="607" dy="1580" grid="1" gridSize="10" guides="1" tooltips="1" connect="1" arrows="1" fold="1" page="1" pageScale="1" pageWidth="1080" pageHeight="1920" math="0" shadow="0">
      <root>
        <mxCell id="0" />
        <mxCell id="1" parent="0" />
        <mxCell id="b-umGTe2XW8B632ZiuuV-2" value="" style="swimlane;startSize=0;fillColor=default;" vertex="1" parent="1">
          <mxGeometry x="50" y="110" width="990" height="1760" as="geometry">
            <mxRectangle x="50" y="110" width="50" height="40" as="alternateBounds" />
          </mxGeometry>
        </mxCell>
        <mxCell id="b-umGTe2XW8B632ZiuuV-3" value="Pelanggan" style="swimlane;whiteSpace=wrap;html=1;swimlaneFillColor=none;" vertex="1" parent="b-umGTe2XW8B632ZiuuV-2">
          <mxGeometry width="330" height="1760" as="geometry" />
        </mxCell>
        <mxCell id="b-umGTe2XW8B632ZiuuV-10" value="" style="strokeWidth=2;html=1;shape=mxgraph.flowchart.start_2;whiteSpace=wrap;labelBackgroundColor=none;fontColor=default;fillColor=#000000;" vertex="1" parent="b-umGTe2XW8B632ZiuuV-3">
          <mxGeometry x="130" y="70" width="60" height="60" as="geometry" />
        </mxCell>
        <mxCell id="b-umGTe2XW8B632ZiuuV-14" value="" style="endArrow=classic;html=1;rounded=0;" edge="1" parent="b-umGTe2XW8B632ZiuuV-3" source="b-umGTe2XW8B632ZiuuV-10">
          <mxGeometry width="50" height="50" relative="1" as="geometry">
            <mxPoint x="110" y="70" as="sourcePoint" />
            <mxPoint x="160" y="180" as="targetPoint" />
          </mxGeometry>
        </mxCell>
        <mxCell id="b-umGTe2XW8B632ZiuuV-18" value="" style="rounded=1;whiteSpace=wrap;html=1;" vertex="1" parent="b-umGTe2XW8B632ZiuuV-3">
          <mxGeometry x="80" y="220" width="120" height="60" as="geometry" />
        </mxCell>
        <mxCell id="b-umGTe2XW8B632ZiuuV-6" value="Pemilik" style="swimlane;whiteSpace=wrap;html=1;" vertex="1" parent="b-umGTe2XW8B632ZiuuV-2">
          <mxGeometry x="330" width="330" height="1760" as="geometry" />
        </mxCell>
        <mxCell id="b-umGTe2XW8B632ZiuuV-5" value="Sistem" style="swimlane;whiteSpace=wrap;html=1;" vertex="1" parent="b-umGTe2XW8B632ZiuuV-2">
          <mxGeometry x="660" width="330" height="1760" as="geometry" />
        </mxCell>
        <mxCell id="b-umGTe2XW8B632ZiuuV-7" value="" style="swimlane;startSize=0;" vertex="1" parent="1">
          <mxGeometry x="50" y="70" width="990" height="40" as="geometry" />
        </mxCell>
        <mxCell id="b-umGTe2XW8B632ZiuuV-8" value="Activity Diagram" style="text;html=1;align=center;verticalAlign=middle;resizable=0;points=[];autosize=1;strokeColor=none;fillColor=none;fontStyle=1" vertex="1" parent="b-umGTe2XW8B632ZiuuV-7">
          <mxGeometry x="440" y="5" width="110" height="30" as="geometry" />
        </mxCell>
      </root>
    </mxGraphModel>
  </diagram>
</mxfile>
